<?xml version="1.0" standalone="no"?>
<!DOCTYPE svg PUBLIC "-//W3C//DTD SVG 20010904//EN"
 "http://www.w3.org/TR/2001/REC-SVG-20010904/DTD/svg10.dtd">
<svg version="1.0" xmlns="http://www.w3.org/2000/svg"
 width="229.000000pt" height="66.000000pt" viewBox="0 0 229.000000 66.000000"
 preserveAspectRatio="xMidYMid meet">

<g transform="translate(0.000000,66.000000) scale(0.100000,-0.100000)"
fill="#000000" stroke="none">
<path d="M280 600 c-17 -17 -23 -18 -40 -8 -23 15 -49 4 -65 -28 -6 -11 -18
-18 -28 -16 -26 5 -47 -16 -47 -49 0 -19 -5 -29 -14 -29 -25 0 -46 -39 -36
-65 6 -17 5 -27 -6 -35 -19 -16 -18 -55 1 -74 11 -11 13 -21 7 -33 -14 -26 3
-63 28 -63 15 0 20 -7 20 -28 0 -33 16 -52 45 -52 14 0 26 -10 34 -26 10 -23
16 -26 49 -22 24 4 42 1 50 -8 16 -18 58 -18 69 -1 4 7 26 13 48 12 32 0 42 4
50 22 7 16 18 23 37 23 30 0 52 28 42 54 -4 11 2 19 19 25 30 12 42 43 28 70
-8 14 -7 20 3 24 22 9 26 45 6 69 -14 17 -16 27 -8 42 14 26 -6 66 -33 66 -15
0 -19 4 -15 16 10 27 -22 67 -49 62 -18 -4 -25 0 -29 18 -7 27 -51 43 -68 26
-8 -8 -18 -5 -36 8 -31 25 -37 25 -62 0z m89 -40 c9 0 0 -8 -19 -18 -25 -13
-41 -15 -57 -9 -28 12 -74 -6 -119 -46 -25 -21 -36 -42 -44 -82 -10 -49 -9
-57 14 -104 33 -64 34 -101 5 -101 -19 0 -20 -2 -8 -17 25 -30 111 -63 165
-63 61 0 106 14 154 47 l35 24 -37 -34 c-67 -60 -158 -73 -244 -33 -144 67
-180 251 -71 364 52 55 124 85 181 76 16 -2 36 -4 45 -4z m66 -33 c91 -62 131
-185 91 -281 -18 -43 -34 -53 -51 -30 -20 26 -18 48 5 86 11 18 20 48 20 66 0
53 -37 127 -78 156 -45 32 -34 35 13 3z m-32 -74 c-7 -2 -21 -2 -30 0 -10 3
-4 5 12 5 17 0 24 -2 18 -5z m-78 -23 c4 -6 11 -8 16 -5 5 4 9 1 9 -4 0 -6 -8
-11 -17 -11 -17 -1 -17 -1 0 -14 26 -20 21 -26 -25 -26 l-43 1 25 21 c24 21
24 21 3 15 -16 -3 -23 -1 -23 10 0 9 6 13 15 9 8 -3 15 -1 15 4 0 13 17 13 25
0z m128 -3 c4 3 7 1 7 -5 0 -7 -9 -12 -20 -12 -12 0 -20 7 -20 16 0 13 3 14
13 5 8 -6 17 -8 20 -4z m-196 -33 c-3 -3 -12 -4 -19 -1 -8 3 -5 6 6 6 11 1 17
-2 13 -5z m136 -1 c-7 -2 -19 -2 -25 0 -7 3 -2 5 12 5 14 0 19 -2 13 -5z m52
-13 c-3 -5 -23 -9 -43 -9 l-37 2 40 7 c22 4 41 8 43 9 2 0 0 -3 -3 -9z m-207
-7 c-10 -2 -26 -2 -35 0 -10 3 -2 5 17 5 19 0 27 -2 18 -5z m-74 -29 c10 -25
-1 -29 -14 -5 -6 12 -7 21 -1 21 5 0 12 -7 15 -16z m316 8 c0 -38 -145 -87
-207 -70 -21 5 -45 17 -53 25 -13 14 -13 15 5 8 11 -4 45 -9 75 -12 47 -4 63
0 110 25 62 33 70 36 70 24z"/>
<path d="M850 513 c-12 -15 -12 -16 0 -5 21 18 38 15 43 -10 5 -20 5 -20 4 2
-2 30 -29 38 -47 13z"/>
<path d="M1038 503 c18 -2 45 -2 60 0 15 2 0 4 -33 4 -33 0 -45 -2 -27 -4z"/>
<path d="M1289 501 c62 -5 75 -9 82 -26 5 -14 8 -15 8 -4 2 30 -22 39 -93 37
l-71 -2 74 -5z"/>
<path d="M1548 503 c7 -3 16 -2 19 1 4 3 -2 6 -13 5 -11 0 -14 -3 -6 -6z"/>
<path d="M1888 503 c18 -2 45 -2 60 0 15 2 0 4 -33 4 -33 0 -45 -2 -27 -4z"/>
<path d="M2049 493 c-12 -16 -12 -17 1 -7 8 7 24 14 35 17 19 4 19 5 -1 6 -12
0 -28 -7 -35 -16z"/>
<path d="M1629 483 c-12 -16 -12 -17 1 -7 8 7 24 14 35 17 19 4 19 5 -1 6 -12
0 -28 -7 -35 -16z"/>
<path d="M1987 490 c6 -8 13 -26 16 -40 l4 -25 2 26 c0 15 -7 33 -16 40 -16
12 -17 12 -6 -1z"/>
<path d="M1810 475 c-7 -9 -11 -17 -9 -20 3 -2 10 5 17 15 14 24 10 26 -8 5z"/>
<path d="M918 453 c5 -21 7 -23 10 -9 2 10 0 22 -6 28 -6 6 -7 0 -4 -19z"/>
<path d="M795 460 c-3 -6 1 -7 9 -4 18 7 21 14 7 14 -6 0 -13 -4 -16 -10z"/>
<path d="M1165 439 c-9 -17 -15 -33 -13 -35 3 -2 12 12 21 31 21 43 13 47 -8
4z"/>
<path d="M1048 443 c7 -3 16 -2 19 1 4 3 -2 6 -13 5 -11 0 -14 -3 -6 -6z"/>
<path d="M1745 440 c-16 -7 -17 -9 -3 -9 9 -1 20 4 23 9 7 11 7 11 -20 0z"/>
<path d="M739 423 c-13 -16 -12 -17 4 -4 16 13 21 21 13 21 -2 0 -10 -8 -17
-17z"/>
<path d="M1278 433 c12 -2 30 -2 40 0 9 3 -1 5 -23 4 -22 0 -30 -2 -17 -4z"/>
<path d="M1865 430 c-3 -6 1 -7 9 -4 18 7 21 14 7 14 -6 0 -13 -4 -16 -10z"/>
<path d="M1909 423 c-13 -16 -12 -17 4 -4 16 13 21 21 13 21 -2 0 -10 -8 -17
-17z"/>
<path d="M1037 419 c-9 -5 -22 -7 -27 -4 -6 3 -10 1 -10 -4 0 -16 23 -13 46 4
22 17 17 19 -9 4z"/>
<path d="M1232 417 c-9 -10 -3 -13 31 -14 33 0 35 1 9 4 -18 2 -30 9 -27 14 9
14 -1 11 -13 -4z"/>
<path d="M868 408 c5 -5 16 -8 23 -6 8 3 3 7 -10 11 -17 4 -21 3 -13 -5z"/>
<path d="M931 394 c0 -11 3 -14 6 -6 3 7 2 16 -1 19 -3 4 -6 -2 -5 -13z"/>
<path d="M1310 406 c0 -2 7 -7 16 -10 8 -3 12 -2 9 4 -6 10 -25 14 -25 6z"/>
<path d="M1464 388 c-42 -49 -45 -55 -31 -66 11 -9 13 -7 13 10 -1 14 8 27 24
35 14 7 19 13 11 13 -11 0 -11 3 -1 15 20 24 6 17 -16 -7z"/>
<path d="M1850 400 c0 -5 5 -10 11 -10 5 0 7 5 4 10 -3 6 -8 10 -11 10 -2 0
-4 -4 -4 -10z"/>
<path d="M850 390 c0 -5 5 -10 11 -10 5 0 7 5 4 10 -3 6 -8 10 -11 10 -2 0 -4
-4 -4 -10z"/>
<path d="M1525 390 c-19 -8 -19 -9 2 -9 12 -1 25 4 28 9 7 12 -2 12 -30 0z"/>
<path d="M1079 373 c-13 -16 -12 -17 4 -4 16 13 21 21 13 21 -2 0 -10 -8 -17
-17z"/>
<path d="M2001 374 c0 -11 3 -14 6 -6 3 7 2 16 -1 19 -3 4 -6 -2 -5 -13z"/>
<path d="M1355 349 c-4 -6 -5 -12 -2 -15 2 -3 7 2 10 11 7 17 1 20 -8 4z"/>
<path d="M1238 333 c7 -3 16 -2 19 1 4 3 -2 6 -13 5 -11 0 -14 -3 -6 -6z"/>
<path d="M871 291 c-20 -31 -20 -33 -3 -18 15 14 21 15 26 5 3 -7 3 -2 0 11
-4 16 -3 21 5 17 6 -4 11 -3 11 3 0 24 -17 16 -39 -18z"/>
<path d="M1342 290 c0 -19 2 -27 5 -17 2 9 2 25 0 35 -3 9 -5 1 -5 -18z"/>
<path d="M1410 311 c0 -6 4 -13 10 -16 6 -3 7 1 4 9 -7 18 -14 21 -14 7z"/>
<path d="M1480 309 c0 -5 5 -7 10 -4 6 3 10 8 10 11 0 2 -4 4 -10 4 -5 0 -10
-5 -10 -11z"/>
<path d="M1690 310 c0 -4 11 -10 25 -12 13 -3 22 -2 20 2 -7 11 -45 20 -45 10z"/>
<path d="M1981 304 c0 -11 3 -14 6 -6 3 7 2 16 -1 19 -3 4 -6 -2 -5 -13z"/>
<path d="M718 303 c6 -2 18 -2 25 0 6 3 1 5 -13 5 -14 0 -19 -2 -12 -5z"/>
<path d="M1615 300 c-3 -5 -1 -10 4 -10 6 0 11 5 11 10 0 6 -2 10 -4 10 -3 0
-8 -4 -11 -10z"/>
<path d="M1820 299 c0 -5 5 -7 10 -4 6 3 10 8 10 11 0 2 -4 4 -10 4 -5 0 -10
-5 -10 -11z"/>
<path d="M1198 293 c7 -3 16 -2 19 1 4 3 -2 6 -13 5 -11 0 -14 -3 -6 -6z"/>
<path d="M1305 289 c4 -11 -2 -23 -17 -33 -12 -9 -18 -16 -12 -16 6 0 19 9 29
20 15 16 16 23 6 33 -10 9 -11 9 -6 -4z"/>
<path d="M2070 296 c0 -2 15 -6 34 -8 19 -2 32 0 30 4 -5 8 -64 12 -64 4z"/>
<path d="M1534 268 l-19 -23 23 19 c12 11 22 21 22 23 0 8 -8 2 -26 -19z"/>
<path d="M1575 280 c-3 -6 1 -7 9 -4 18 7 21 14 7 14 -6 0 -13 -4 -16 -10z"/>
<path d="M680 266 c0 -8 4 -17 9 -20 5 -4 7 3 4 14 -6 23 -13 26 -13 6z"/>
<path d="M1564 240 c1 -9 12 -15 29 -16 24 -1 24 -1 3 3 -14 2 -27 10 -29 16
-2 7 -3 5 -3 -3z"/>
<path d="M1860 256 c0 -2 8 -10 18 -17 15 -13 16 -12 3 4 -13 16 -21 21 -21
13z"/>
<path d="M795 240 c-3 -6 1 -7 9 -4 18 7 21 14 7 14 -6 0 -13 -4 -16 -10z"/>
<path d="M1743 240 c2 -8 12 -16 23 -17 13 -2 15 -1 4 4 -8 3 -19 11 -23 17
-6 7 -7 6 -4 -4z"/>
<path d="M1910 240 c-9 -6 -10 -10 -3 -10 6 0 15 5 18 10 8 12 4 12 -15 0z"/>
<path d="M716 233 c5 -5 12 -12 16 -18 4 -6 8 -2 8 8 0 9 -7 17 -17 17 -9 0
-12 -3 -7 -7z"/>
<path d="M930 230 c-9 -6 -10 -10 -3 -10 6 0 15 5 18 10 8 12 4 12 -15 0z"/>
<path d="M1119 227 c5 -5 28 -7 52 -5 l44 3 -52 5 c-29 3 -48 1 -44 -3z"/>
<path d="M1238 233 c7 -3 16 -2 19 1 4 3 -2 6 -13 5 -11 0 -14 -3 -6 -6z"/>
<path d="M1668 233 c6 -2 18 -2 25 0 6 3 1 5 -13 5 -14 0 -19 -2 -12 -5z"/>
<path d="M1398 223 c12 -2 32 -2 45 0 12 2 2 4 -23 4 -25 0 -35 -2 -22 -4z"/>
<path d="M2003 223 c9 -2 25 -2 35 0 9 3 1 5 -18 5 -19 0 -27 -2 -17 -5z"/>
<path d="M737 188 c2 -5 10 -8 18 -8 8 0 16 3 18 8 3 4 -5 7 -18 7 -13 0 -21
-3 -18 -7z"/>
</g>
</svg>
